<?xml version="1.0" standalone="no"?>
<!DOCTYPE svg PUBLIC "-//W3C//DTD SVG 20010904//EN"
 "http://www.w3.org/TR/2001/REC-SVG-20010904/DTD/svg10.dtd">
<svg version="1.0" xmlns="http://www.w3.org/2000/svg"
 width="512.000000pt" height="512.000000pt" viewBox="0 0 512.000000 512.000000"
 preserveAspectRatio="xMidYMid meet">
<metadata>
Created by potrace 1.14, written by Peter Selinger 2001-2017
</metadata>
<g transform="translate(0.000000,512.000000) scale(0.100000,-0.100000)"
fill="#000000" stroke="none">
<path d="M2460 5034 c-166 -65 -319 -115 -360 -118 -25 -2 -61 -11 -82 -20
-70 -30 -374 -98 -405 -90 -11 3 -35 -2 -53 -11 -17 -9 -39 -18 -48 -20 -103
-19 -165 -26 -181 -20 -11 3 -31 1 -43 -6 -33 -18 -145 -38 -185 -33 -19 2
-42 0 -51 -5 -10 -5 -51 -12 -92 -16 -41 -4 -95 -10 -119 -15 -25 -4 -50 -6
-56 -4 -20 8 -158 -61 -192 -96 -18 -18 -38 -49 -45 -69 -10 -29 -13 -341 -12
-1511 0 -811 3 -1514 7 -1562 l6 -88 -166 -162 c-92 -90 -185 -181 -207 -203
-86 -84 -105 -125 -112 -240 -3 -62 -10 -150 -20 -290 -3 -44 -10 -102 -14
-130 -11 -69 -6 -195 9 -223 7 -13 31 -32 53 -42 40 -18 111 -19 263 -6 33 3
96 8 140 11 44 3 98 8 120 10 22 2 81 6 130 10 145 11 161 21 402 264 l209
210 55 -25 c175 -82 840 -384 844 -384 3 0 36 -15 75 -34 140 -69 214 -81 315
-53 28 8 248 88 490 179 242 90 494 184 560 207 158 57 335 141 404 193 229
173 403 453 462 743 22 109 24 223 23 1380 0 830 3 1202 10 1207 6 4 21 5 33
2 22 -6 146 52 233 109 114 76 197 203 224 348 49 252 -84 489 -335 595 -58
24 -76 27 -209 29 l-145 3 -75 -38 c-41 -21 -98 -53 -127 -72 -57 -36 -154
-142 -173 -189 -11 -26 -17 -29 -59 -29 -25 0 -64 5 -86 11 -22 5 -56 12 -75
13 -48 5 -162 25 -180 33 -8 4 -29 7 -46 8 -52 4 -478 106 -589 142 -27 9 -99
35 -160 59 -60 23 -128 47 -150 53 -66 18 -144 12 -215 -15z m2100 -33 c13 -1
-50 -51 -64 -51 -3 0 -51 -27 -107 -60 -111 -66 -111 -62 -2 48 71 70 73 72
115 68 24 -2 50 -5 58 -5z m-2095 -29 c-6 -5 -192 -114 -415 -242 -223 -129
-416 -241 -430 -250 -27 -19 -100 -46 -85 -32 6 5 93 67 195 138 102 70 233
163 291 205 85 61 122 81 185 100 44 13 117 38 164 55 89 34 111 40 95 26z
m222 -18 c46 -18 54 -31 26 -41 -10 -4 -38 -19 -64 -33 -25 -15 -65 -38 -90
-52 -24 -14 -121 -70 -216 -125 -194 -114 -243 -138 -293 -148 -39 -7 -66 -27
355 258 127 86 232 156 235 156 2 1 24 -6 47 -15z m2018 0 c19 -8 12 -13 -68
-58 -26 -14 -60 -34 -75 -43 -40 -25 -24 -10 54 51 80 64 68 58 89 50z m-1856
-68 c-2 -2 -15 -9 -29 -15 -24 -11 -24 -11 -6 3 16 13 49 24 35 12z m1965 -12
c28 -11 18 -22 -56 -65 -40 -23 -90 -52 -111 -66 -78 -50 -52 -16 45 60 55 42
102 77 103 77 2 0 10 -3 19 -6z m-1787 -33 c8 -4 -46 -41 -132 -90 -117 -67
-150 -82 -171 -77 -25 7 -20 11 67 67 52 34 114 74 139 90 43 27 61 29 97 10z
m192 -47 c6 -6 11 -3 -154 -98 -116 -68 -154 -85 -169 -79 -16 8 1 21 100 83
65 41 129 82 142 91 20 16 67 17 81 3z m-1390 -8 c-7 -7 -523 -303 -549 -315
l-25 -12 24 18 c142 104 347 258 352 265 3 5 44 18 90 27 89 19 115 23 108 17z
m1599 -38 l50 -11 -156 -90 c-86 -49 -161 -93 -165 -97 -9 -8 -97 10 -97 19 1
11 285 190 302 190 9 1 39 -4 66 -11z m-2033 -46 c-6 -5 -28 -19 -50 -31 -39
-22 -39 -22 -15 -2 14 12 34 26 45 31 26 11 31 12 20 2z m2284 -1 c22 -6 2
-20 -143 -104 -167 -97 -181 -102 -223 -91 -19 5 4 23 130 104 153 99 177 108
236 91z m1261 -21 c0 -5 -33 -28 -72 -51 -40 -23 -84 -49 -98 -58 -41 -25 -20
-6 70 62 79 60 100 70 100 47z m-1071 -14 c-5 -4 -341 -197 -354 -203 -29 -13
65 52 180 123 71 45 141 82 154 83 13 1 22 -1 20 -3z m-2969 -41 c0 -4 -126
-75 -134 -75 -12 0 39 62 56 69 20 7 78 12 78 6z m1714 -24 c3 -5 -78 -57
-182 -116 -103 -59 -203 -117 -222 -128 -79 -46 -4 7 160 113 96 61 184 118
195 125 24 16 42 18 49 6z m1346 -6 c0 -21 -12 -29 -144 -105 -75 -43 -126
-66 -138 -62 -16 4 -13 8 19 27 21 12 85 52 143 88 58 36 108 66 113 66 4 1 7
-6 7 -14z m295 -30 c-42 -35 -65 -48 -65 -36 0 9 77 61 90 61 3 0 -8 -11 -25
-25z m715 -32 c0 -36 -3 -40 -68 -76 -37 -20 -96 -53 -132 -74 -76 -42 -75
-41 50 63 52 43 106 89 120 101 14 13 26 23 27 23 2 0 3 -17 3 -37z m-1020
-86 c0 -14 -49 -46 -80 -52 -29 -6 -25 0 23 34 47 34 57 37 57 18z m390 -82
c0 -2 -29 -27 -65 -54 -45 -33 -72 -47 -85 -44 -18 5 -16 8 12 23 18 10 56 31
83 48 56 34 55 34 55 27z m245 -4 c-6 -6 -66 -57 -134 -114 -107 -90 -127
-103 -143 -93 -14 8 -23 8 -39 -2 -18 -11 -41 -10 -28 2 25 21 334 213 349
215 2 1 0 -3 -5 -8z m-1020 -14 c-11 -8 -101 -60 -200 -117 -99 -56 -197 -114
-218 -127 -22 -14 -41 -23 -43 -21 -2 2 22 20 54 38 31 19 131 81 221 137 91
57 174 103 185 103 20 0 20 0 1 -13z m1380 -6 c-3 -6 -11 -11 -17 -11 -6 0 -6
6 2 15 14 17 26 13 15 -4z m-4005 -5 c0 -3 -244 -186 -267 -200 -9 -5 -13 0
-13 18 0 20 13 32 77 67 42 23 104 59 137 80 65 40 66 41 66 35z m2795 -22
c-31 -24 -188 -114 -192 -111 -1 2 32 25 75 52 42 26 86 54 97 61 28 18 44 16
20 -2z m-2236 -8 c-13 -11 -145 -100 -209 -141 -70 -44 -73 -45 -43 -14 30 31
227 157 247 158 5 1 7 -1 5 -3z m-377 -42 c-30 -20 -56 -33 -59 -30 -6 6 86
66 101 66 6 0 -13 -16 -42 -36z m2378 -89 c0 -2 -10 -9 -22 -15 -22 -11 -22
-10 -4 4 21 17 26 19 26 11z m1025 -51 c-80 -72 -103 -86 -121 -76 -14 8 -2
19 67 61 46 28 86 51 89 51 3 -1 -13 -17 -35 -36z m-3655 -17 c0 -21 -68 -77
-182 -149 l-28 -18 0 38 c1 36 3 38 98 93 53 31 100 57 105 58 4 1 7 -9 7 -22z
m3270 -25 c0 -5 -15 -16 -32 -25 -18 -8 -53 -28 -78 -43 -65 -39 -36 -13 39
35 69 44 71 45 71 33z m465 -51 c-3 -6 -14 -11 -23 -11 -13 0 -13 2 4 14 21
15 30 14 19 -3z m-300 -39 c-16 -14 -165 -102 -173 -102 -10 0 161 109 173
110 6 0 6 -3 0 -8z m-3447 -117 c-12 -12 -158 -113 -185 -129 -10 -5 -13 4
-13 37 l0 45 103 60 102 60 3 -30 c2 -17 -2 -36 -10 -43z m3587 9 c-32 -24
-138 -85 -141 -81 -4 3 147 97 156 96 3 0 -4 -7 -15 -15z m-3235 -58 c0 -4
-187 -127 -204 -135 -5 -2 -7 2 -4 9 2 7 49 38 103 71 108 62 105 61 105 55z
m3250 -81 c0 -30 -6 -38 -40 -60 -22 -14 -42 -25 -45 -25 -2 0 -29 -16 -59
-35 -30 -19 -59 -35 -65 -35 -5 0 -8 14 -7 32 2 28 13 38 102 95 54 34 102 63
107 63 4 0 7 -16 7 -35z m-3583 -121 c0 -14 -76 -71 -179 -133 l-38 -23 0 29
c0 29 0 29 120 95 30 17 59 34 65 39 15 14 32 10 32 -7z m3568 -38 c-10 -7
-35 -22 -54 -32 -20 -10 -38 -22 -41 -25 -8 -10 -90 -50 -90 -44 0 2 17 14 38
25 55 30 104 60 132 80 14 10 27 16 29 14 3 -2 -4 -10 -14 -18z m-3405 -21 c0
-2 -10 -9 -22 -15 -22 -11 -22 -10 -4 4 21 17 26 19 26 11z m3080 -19 c0 -19
-13 -32 -62 -62 -35 -20 -79 -46 -98 -58 l-35 -21 40 49 c35 42 126 113 148
115 4 1 7 -10 7 -23z m340 -66 c0 -16 -206 -138 -216 -127 -4 4 199 133 214
136 1 1 2 -3 2 -9z m-3583 -17 c3 -8 -168 -126 -204 -140 -8 -3 -13 3 -13 18
1 20 19 35 98 80 96 56 113 62 119 42z m3583 -122 c0 -16 -63 -57 -212 -138
-3 -1 -5 5 -4 14 2 15 186 141 209 142 4 1 7 -8 7 -18z m-3585 -43 c-2 -18 -3
-36 -4 -39 -1 -6 -183 -128 -203 -137 -5 -2 -8 17 -8 41 l0 45 83 48 c74 43
130 74 133 74 1 0 0 -15 -1 -32z m655 -82 c0 -2 -8 -10 -17 -17 -16 -13 -17
-12 -4 4 13 16 21 21 21 13z m2930 -44 c0 -46 -1 -48 -47 -72 -27 -13 -71 -39
-100 -57 -29 -18 -56 -33 -61 -33 -11 0 -9 66 2 78 7 6 198 130 204 131 1 1 2
-20 2 -47z m-3035 -27 c-38 -25 -74 -45 -80 -45 -5 0 6 10 25 22 19 11 51 31
70 44 19 12 40 23 45 23 6 0 -21 -20 -60 -44z m-547 -40 c-2 -21 -23 -39 -110
-95 l-108 -69 0 34 c0 30 6 38 40 60 22 14 41 25 44 25 2 0 30 16 62 35 32 19
61 35 66 35 4 0 7 -11 6 -25z m317 -100 c-16 -14 -35 -25 -42 -25 -6 0 -13 -3
-15 -7 -3 -9 -122 -83 -132 -83 -25 0 9 28 96 80 106 62 144 77 93 35z m3265
5 c0 -19 -205 -138 -217 -126 -5 4 133 96 145 96 4 0 18 9 32 20 28 22 40 25
40 10z m-3601 -68 c-33 -25 -188 -122 -195 -122 -21 0 15 29 101 80 99 58 140
77 94 42z m3599 -63 c-3 -10 -60 -48 -98 -66 -8 -4 -37 -20 -63 -36 -26 -16
-51 -27 -54 -24 -3 3 19 21 48 39 29 18 76 47 104 65 54 34 69 39 63 22z
m-3582 -56 c-2 -16 -188 -143 -208 -143 -5 0 -8 8 -8 18 0 11 36 38 108 79 59
34 108 63 109 63 1 0 0 -8 -1 -17z m3234 -18 c0 -2 -10 -9 -22 -15 -22 -11
-22 -10 -4 4 21 17 26 19 26 11z m-2530 -9 c0 -2 -44 -32 -97 -67 -54 -34
-108 -69 -120 -77 -14 -8 -23 -10 -23 -4 0 6 33 30 73 53 39 23 92 54 117 70
47 30 50 32 50 25z m234 -44 c-12 -9 -41 -29 -65 -43 -24 -15 -122 -77 -217
-138 -96 -61 -178 -111 -183 -111 -42 0 45 64 211 153 43 24 218 125 245 143
29 19 34 16 9 -4z m-644 -36 c0 -2 -26 -19 -57 -38 -32 -19 -71 -43 -88 -54
-16 -10 -26 -13 -22 -6 5 6 43 32 85 57 80 47 82 47 82 41z m-296 -38 c-2 -7
-33 -30 -67 -50 -34 -20 -81 -49 -104 -63 -42 -25 -43 -25 -43 -6 0 12 4 21
10 21 5 0 51 25 102 55 98 58 110 63 102 43z m3245 -2 c-12 -10 -103 -58 -97
-51 12 12 82 54 92 55 5 0 7 -2 5 -4z m-153 -91 c-11 -8 -25 -15 -30 -15 -6 1
0 7 14 15 32 19 40 18 16 0z m-2746 -9 c0 -8 -49 -45 -108 -83 -96 -62 -108
-68 -110 -49 -1 17 20 34 106 83 59 34 108 62 110 62 1 1 2 -5 2 -13z m-344
-41 c-2 -32 -11 -39 -123 -108 l-93 -57 0 34 c0 32 5 36 103 94 56 33 105 60
108 61 3 1 5 -10 5 -24z m3584 -3 c0 -22 -7 -32 -32 -45 -18 -9 -55 -30 -83
-47 -74 -44 -94 -54 -101 -47 -13 13 18 42 112 102 54 34 100 63 102 64 1 1 2
-12 2 -27z m-2710 -7 c-6 -8 -87 -62 -178 -121 -92 -58 -180 -115 -195 -126
-16 -11 -31 -17 -34 -15 -11 12 10 47 35 60 32 17 76 41 247 141 72 42 132 76
134 76 2 0 -2 -7 -9 -15z m-530 -134 c0 -13 -32 -39 -104 -85 -57 -36 -106
-66 -110 -66 -3 0 -6 11 -6 25 0 24 10 31 185 132 29 16 35 15 35 -6z m3240
-10 c0 -14 -29 -36 -105 -80 -60 -34 -107 -55 -111 -50 -3 6 -3 13 1 17 11 11
200 130 208 131 4 1 7 -8 7 -18z m-3584 -21 c-1 -25 -11 -36 -76 -76 -41 -26
-87 -55 -102 -65 -37 -26 -40 -24 -36 17 3 31 9 39 53 63 28 16 73 42 100 59
28 17 53 31 56 31 3 1 6 -12 5 -29z m3244 -33 c0 -15 -67 -53 -77 -44 -7 8 -9
7 37 35 41 26 40 25 40 9z m340 -90 c0 -18 -15 -31 -67 -61 -38 -21 -87 -50
-110 -63 -37 -21 -41 -22 -39 -6 2 10 47 46 107 85 57 36 105 67 107 67 1 1 2
-9 2 -22z m-3584 -54 c-1 -36 -4 -39 -106 -105 -58 -37 -108 -67 -112 -67 -6
-1 -1 81 5 85 1 1 206 120 213 124 0 0 0 -17 0 -37z m344 17 c0 -20 -33 -45
-152 -119 l-68 -41 0 33 c0 30 6 35 98 89 108 62 122 67 122 38z m3240 -132
l0 -43 -97 -55 c-122 -69 -124 -69 -120 -30 2 28 14 39 107 100 58 38 106 69
108 69 1 1 2 -18 2 -41z m-3584 -79 l-1 -41 -114 -69 -113 -70 4 48 3 48 110
62 c60 35 110 63 110 63 1 0 1 -18 1 -41z m3584 -104 c0 -33 -4 -37 -94 -89
-125 -74 -125 -74 -117 -36 5 26 22 42 106 95 55 36 101 65 103 65 1 0 2 -16
2 -35z m-3600 -65 c-35 -24 -54 -31 -30 -11 14 11 30 21 35 21 6 0 3 -5 -5
-10z m-60 -34 c0 -6 -141 -88 -146 -84 -2 2 29 23 69 46 76 44 77 44 77 38z
m3660 -54 c0 -5 -15 -16 -32 -25 -42 -21 -130 -71 -163 -93 -14 -9 -25 -14
-25 -11 0 5 125 88 145 96 6 2 21 12 34 22 25 20 41 24 41 11z m-3584 -40 c5
-28 -46 -71 -178 -151 l-38 -23 0 40 0 40 103 60 c56 32 104 57 106 55 3 -2 6
-11 7 -21z m3579 -82 c-3 -5 -12 -10 -18 -10 -7 0 -6 4 3 10 19 12 23 12 15 0z
m-65 -35 c0 -2 -10 -9 -22 -15 -22 -11 -22 -10 -4 4 21 17 26 19 26 11z m52
-131 c-5 -8 -66 -49 -135 -89 -102 -59 -127 -71 -127 -56 0 24 14 36 150 125
99 65 115 73 118 56 2 -11 -1 -27 -6 -36z m-3353 -38 c-15 -13 -883 -556 -885
-553 -2 2 7 19 21 39 22 33 119 95 340 219 28 15 154 88 280 162 194 114 266
153 244 133z m-39 -201 c0 -2 -10 -9 -22 -15 -22 -11 -22 -10 -4 4 21 17 26
19 26 11z m2945 -20 c-16 -14 -34 -25 -40 -25 -9 0 55 49 65 49 3 0 -8 -11
-25 -24z m-2995 -9 c0 -2 -12 -11 -27 -20 l-28 -17 24 20 c23 21 31 25 31 17z
m990 -60 c0 -2 -28 -20 -62 -41 -35 -21 -73 -45 -85 -53 -13 -8 -23 -12 -23
-9 0 5 159 107 167 107 2 0 3 -2 3 -4z m-1311 -126 c-37 -35 -153 -117 -276
-195 -117 -74 -214 -135 -216 -135 -1 0 -1 18 1 39 4 40 5 40 140 118 76 43
146 83 157 89 42 23 93 53 165 97 41 25 79 46 84 46 5 1 -20 -26 -55 -59z
m1336 1 c-25 -22 -241 -151 -255 -151 -8 0 21 21 65 46 44 26 105 62 135 80
56 34 72 41 55 25z m-1085 -166 c0 -6 -191 -132 -207 -137 -4 -2 -10 1 -11 6
-2 5 45 37 105 72 118 69 113 66 113 59z m734 -51 c12 -5 -17 -27 -95 -76 -61
-38 -114 -67 -117 -64 -10 11 52 67 118 106 71 43 71 43 94 34z m427 -34 c-13
-11 -28 -20 -35 -20 -6 0 3 9 19 19 39 25 46 25 16 1z m-1553 0 c-5 -17 -368
-240 -368 -227 0 27 29 48 190 141 163 95 185 106 178 86z m3382 -32 c-136
-124 -156 -136 -320 -194 -76 -28 -90 -30 -70 -14 14 11 28 20 31 20 3 0 91
49 195 110 104 60 191 110 194 110 2 0 -11 -14 -30 -32z m-2112 3 c9 -5 -20
-28 -94 -75 -83 -52 -113 -66 -132 -61 -13 3 -21 9 -18 12 9 9 220 133 226
133 3 0 11 -4 18 -9z m537 -51 c-3 -6 -21 -17 -38 -26 -36 -19 -31 -9 10 17
34 21 36 22 28 9z m-373 -16 c35 -18 38 -14 -72 -86 -124 -80 -117 -78 -162
-56 -22 11 -38 21 -36 22 1 2 46 28 98 57 52 30 104 59 115 65 11 7 21 12 23
13 2 1 17 -6 34 -15z m-1363 -13 c14 -9 -19 -32 -363 -255 -48 -31 -90 -56
-91 -54 -2 2 0 19 4 38 5 28 17 40 66 69 221 129 361 210 365 210 3 0 11 -3
19 -8z m216 -40 c-27 -25 -642 -424 -655 -425 -8 -1 -16 9 -18 21 -3 17 13 31
90 76 123 72 282 164 338 195 25 14 57 33 72 43 14 11 28 19 31 19 3 0 36 18
74 40 68 40 85 48 68 31z m1334 -25 l24 -14 -44 -27 c-24 -16 -74 -48 -110
-72 -74 -48 -74 -48 -119 -29 l-33 13 69 41 c103 60 178 101 184 101 3 0 16
-6 29 -13z m141 -70 c0 -10 -232 -147 -238 -141 -4 4 -2 10 3 12 6 2 57 33
115 68 98 60 120 71 120 61z m410 -30 c0 -8 -358 -236 -371 -236 -8 1 -24 6
-37 13 -21 12 -13 18 127 100 82 48 160 87 173 88 13 0 41 9 63 19 47 22 45
21 45 16z m-380 -70 c0 -7 -152 -97 -156 -93 -3 2 31 25 73 50 85 50 83 49 83
43z m-1650 -50 c0 -14 -290 -196 -320 -201 -19 -3 -31 -3 -27 2 6 6 337 200
345 202 1 1 2 -1 2 -3z m180 -30 c0 -2 -21 -20 -47 -39 -27 -19 -68 -51 -93
-70 -28 -22 -59 -38 -82 -40 -46 -5 -43 2 14 32 24 12 79 44 123 71 89 54 85
52 85 46z"/>
</g>
</svg>
